<?xml version="1.0" standalone="no"?>
<!DOCTYPE svg PUBLIC "-//W3C//DTD SVG 20010904//EN"
 "http://www.w3.org/TR/2001/REC-SVG-20010904/DTD/svg10.dtd">
<svg version="1.0" xmlns="http://www.w3.org/2000/svg"
 width="128.000000pt" height="128.000000pt" viewBox="0 0 128.000000 128.000000"
 preserveAspectRatio="xMidYMid meet">
<metadata>
Created by potrace 1.11, written by Peter Selinger 2001-2013
</metadata>
<g transform="translate(0.000000,128.000000) scale(0.100000,-0.100000)"
fill="#000000" stroke="none">
<path d="M1060 1219 c-23 -28 -37 -38 -49 -34 -9 4 -24 8 -33 10 -9 2 -27 9
-40 16 -41 22 -178 46 -178 31 0 -7 -24 -9 -62 -7 -64 3 -102 -11 -143 -52 -8
-8 -15 -11 -15 -7 0 4 -12 -6 -27 -22 -15 -16 -28 -27 -30 -25 -8 9 -63 -10
-63 -21 0 -7 -9 -19 -20 -26 -18 -11 -27 -8 -68 19 -26 18 -54 40 -62 50 -35
42 -40 29 -41 -126 -1 -82 0 -163 3 -180 2 -16 -4 -58 -13 -92 -14 -55 -14
-65 -1 -92 8 -18 19 -28 26 -24 6 3 8 3 4 -2 -4 -4 0 -20 9 -36 13 -22 14 -33
6 -51 -7 -13 -14 -40 -18 -61 -5 -33 -14 -43 -57 -70 -28 -18 -61 -32 -72 -32
-28 0 -48 -14 -40 -27 4 -6 8 -38 10 -70 l3 -60 -44 -26 -44 -27 -1 -87 0 -88
640 0 c352 0 640 3 640 8 0 11 -29 53 -63 89 -28 29 -29 33 -13 48 9 9 13 22
9 28 -8 12 -13 33 -15 55 -1 6 -5 12 -10 12 -4 0 -7 5 -5 12 1 7 -4 13 -10 14
-7 1 -17 2 -21 3 -5 0 -14 12 -20 26 -15 32 -15 38 -2 30 6 -3 10 -1 10 6 0 7
3 10 6 7 8 -8 44 29 44 44 0 10 -2 10 -8 1 -5 -8 -13 -9 -22 -3 -8 5 -11 12
-7 16 4 4 1 14 -6 22 -25 31 -14 221 16 260 13 16 11 72 -7 182 -4 25 -8 63
-10 85 -1 33 -6 41 -23 43 -22 3 -22 6 -19 133 2 71 0 131 -4 134 -5 3 -23
-13 -40 -36z"/>
</g>
</svg>
